PathFileType	4	(X/Y/Z)	65_1_24_p0_0-247_filt_butterworth.trc
DataRate	CameraRate	NumFrames	NumMarkers	Units	OrigDataRate	OrigDataStartFrame	OrigNumFrames
59.0	59.0	6	27	m	59.0	185	247
Frame#	Time	RHip			RKnee			RAnkle			RBigToe			RSmallToe			RHeel			LHip			LKnee			LAnkle			LBigToe			LSmallToe			LHeel			Neck			Head			Nose			RShoulder			RElbow			RWrist			RThumb			RIndex			RPinky			LShoulder			LElbow			LWrist			LThumb			LIndex			LPinky			
		X1	Y1	Z1	X2	Y2	Z2	X3	Y3	Z3	X4	Y4	Z4	X5	Y5	Z5	X6	Y6	Z6	X7	Y7	Z7	X8	Y8	Z8	X9	Y9	Z9	X10	Y10	Z10	X11	Y11	Z11	X12	Y12	Z12	X13	Y13	Z13	X14	Y14	Z14	X15	Y15	Z15	X16	Y16	Z16	X17	Y17	Z17	X18	Y18	Z18	X19	Y19	Z19	X20	Y20	Z20	X21	Y21	Z21	X22	Y22	Z22	X23	Y23	Z23	X24	Y24	Z24	X25	Y25	Z25	X26	Y26	Z26	X27	Y27	Z27	
185	3.135593220338983	0.38679661160120415	0.656504295612859	0.9711590966313206	0.3410489256907603	0.2550532747068524	0.9515855146388702	0.2989672749190847	-0.1950661819517149	1.0013371661529769	0.30103163701265245	-0.2146480845476157	0.8396249207538	0.36186652921398405	-0.20870118188714626	0.8540452885651976	0.2743924545965763	-0.2738113334297552	1.0790877024795367	0.17159389801926284	0.6762957050601979	0.9809735524400214	0.13794877281924148	0.2683738799191177	0.9743554859541433	0.10578753631381287	-0.18844867983469238	1.0253734705203106	0.13407374998060081	-0.19314892646625087	0.8442225998928576	0.07218852676023732	-0.1850217417291729	0.8742915122763263	0.11980487340376132	-0.2345599594960085	1.0411815683393506	0.30608448071815564	1.0824097455392165	0.7759680257236633	0.32392434797812075	1.3592796885895428	0.5032015217381733	0.30850555313730565	1.1602555055598682	0.54620932830562	0.46591561637351003	1.0971489392723999	0.7118353138981154	0.49971295636886726	0.8320742298617904	0.8612858511242325	0.4123311587451691	0.6683377484583394	0.7727234041719527	0.28895925632854896	0.6074815259162025	0.7356415987799654	0.3013743187244132	0.5915472693585427	0.7490706172005586	0.33014539024898226	0.5711560355974812	0.7694551059865722	0.13451691985150244	1.0994517012779974	0.7719888889018067	0.07616283316671998	0.8509752090492064	0.8959943851996642	0.15475339974046498	0.7124328547389704	0.7071964391731757	0.22131102526798557	0.6673119846740643	0.6524600103295951	0.20647971861872733	0.6467623668037414	0.629161705941446	0.17284740696375017	0.6030914893033054	0.6809740535894957	
186	3.152542372881356	0.3884848441246942	0.6616898418110054	0.9706856986089405	0.3440975364333998	0.25523190592814526	0.9575152205246247	0.29928038378577976	-0.1952070003271606	1.0019278536864875	0.30112489721031566	-0.21684260495279026	0.8429821295996369	0.3646360027587672	-0.21061882913969734	0.8599357286895106	0.2735922881096803	-0.27149995664418874	1.0752038984707697	0.1716043919938426	0.6814365759629974	0.9771915771158641	0.1383092112003178	0.2696103713076754	0.9766584814499673	0.10578869415557178	-0.1887234585551373	1.0256210331895634	0.13395439008290236	-0.1935969280280787	0.8457120284981269	0.07219790668157802	-0.18572159250714315	0.8748292249644144	0.11910824594690078	-0.23475304641251715	1.0412737330141362	0.3076051629614636	1.0955581527371863	0.7796436087454905	0.32533610449738526	1.3710669758100111	0.5196759200399261	0.3087837055227304	1.173449753116396	0.5533758260908971	0.4681482412709013	1.1078589772593876	0.7176766588342868	0.5031281923526136	0.8405541088978571	0.8624906590499779	0.41316860379625964	0.6756667005964994	0.776969671639649	0.2857794337760443	0.6121730065981438	0.7487883574023245	0.2947077751006325	0.5916303913745816	0.7658518141632494	0.3277115445943315	0.5720186593555561	0.7923336736709368	0.13521167149611762	1.1101939597308645	0.7736525624270589	0.07588582702402916	0.8585946965648876	0.9009142841911213	0.16093466822102834	0.7156055828111241	0.719421004537635	0.2290240080022497	0.66934674087726	0.6645193656653541	0.21336758844188886	0.6463104872583846	0.6451854456999391	0.1753817051851771	0.6049526176404915	0.7002841908367817	
187	3.169491525423729	0.38984370294853943	0.6665908028147409	0.9695171321312046	0.34697430214964214	0.2553500869839642	0.9632798607366683	0.2995422570351713	-0.1953395128193244	1.0025027253734977	0.30089908413013966	-0.21888587867445733	0.8461082532365682	0.36690111702917627	-0.21199247276551342	0.8639298179527415	0.27278843326289	-0.2692965618627882	1.0714583907623014	0.1715179597733111	0.6860041523724401	0.9726372761755792	0.1385486769490137	0.2702821649020804	0.9791361456842893	0.10588405927000524	-0.18878164949307813	1.0256823660769938	0.13428380960459363	-0.19407463906032785	0.8469171812440096	0.07224852952340233	-0.18611958911154639	0.8751745573120007	0.11846801867218162	-0.2351017226518028	1.041684302083567	0.30889608286076875	1.1091791819387096	0.7818386184434973	0.3274003473624516	1.3827179113681436	0.5351788692082918	0.3094897048566525	1.1867854238989268	0.5605660479014852	0.4703372735638107	1.118391416909148	0.725108778289369	0.506516747213223	0.848064171393967	0.8634894167431972	0.41349866878304165	0.6813968309440608	0.7812806085268602	0.2834797317817614	0.6192666025346014	0.7570313290392702	0.2890671871762447	0.592477570377631	0.7778865450395585	0.32524865653585494	0.5731418539189509	0.8114297909524326	0.1363615598252691	1.1211574783033142	0.7753807418558935	0.07566638043865631	0.8648370786035359	0.9054640636021983	0.1664171117852044	0.7174729541102502	0.7319364558910534	0.23640374384539453	0.6721237982306758	0.6751456106608384	0.22067394926138154	0.6449961585713399	0.6591906162534222	0.17806274267288774	0.6060711097082251	0.7182200778293315	
188	3.1864406779661016	0.39082405768918543	0.671091520043606	0.9673351787363105	0.3496400706126511	0.25550925983641615	0.968706412559334	0.2997499182745844	-0.19539228352063676	1.0029034415364322	0.3006414258298136	-0.2203227208743336	0.8484648569253481	0.3683615440989197	-0.212926959396129	0.8654732891425987	0.2719981769048907	-0.267208007755588	1.0679818510154864	0.17145470586060133	0.6899317714526155	0.9673724406766493	0.13862708729506965	0.27044765543952975	0.9816571880079786	0.1060330484044365	-0.18861108508775173	1.0256635304130237	0.13503102812933843	-0.19447915571317803	0.8476367665107457	0.07231343559752296	-0.18634700695729678	0.8753352650246006	0.11783835240834085	-0.23533346272397732	1.042163232822324	0.30982935205151474	1.122869065893445	0.7826017583318667	0.32978159122542816	1.3943460598559394	0.5489953543569935	0.31061428663743745	1.2000786715390306	0.5669452290353572	0.47229485768924334	1.127714326055727	0.7346851661925835	0.5100713598046178	0.8552169391363009	0.863862945327817	0.4129354306973081	0.6864327131568458	0.7844524914041879	0.28188323196761284	0.6282574107527664	0.7614106383275936	0.28454362989774534	0.5939063968187055	0.7847041300295793	0.3217572878358781	0.5751024353050508	0.8239782956045546	0.13789682895843094	1.1318830715307477	0.7773895311734098	0.07552804714411437	0.8700860362623372	0.9086050547522848	0.17095831567466324	0.7186756603011538	0.743763966040178	0.24330530403330186	0.6750867194992664	0.6858727312467643	0.2282677812768555	0.643038694187315	0.6717990305824555	0.18029522903364914	0.6064460542122603	0.7331872093922004	
189	3.2033898305084745	0.39139841287117727	0.675083515916348	0.9640511744027461	0.3520652035104461	0.2559221366861828	0.9735429113332187	0.2998995103765174	-0.1952469429194238	1.0029941756400989	0.3006676052352071	-0.22094252571115391	0.849751804783002	0.3688902696944212	-0.21380478321719404	0.8648854534440967	0.27127319568590197	-0.26526017669564605	1.0648935461572762	0.17143872134588206	0.6931587137767443	0.9617239859797516	0.13852382754427728	0.27028132770059043	0.9839630936776195	0.1061701905419494	-0.1882548871970865	1.0257013384908287	0.1359939268567635	-0.19468550763567607	0.8477443335722664	0.0723932654713532	-0.18651056601054564	0.875300052815273	0.117220774905888	-0.23532124553965011	1.0426535685635867	0.3104516004904292	1.1355110650852123	0.7827292124311735	0.3320802563553671	1.406012441920316	0.5609209927011767	0.3120435974381805	1.2131515787125744	0.5717817956057802	0.47392486105620324	1.1350047792634494	0.7464542939195844	0.5137736389835278	0.8622537466347695	0.863876175535595	0.41118345004867457	0.6917324447173446	0.7856878201066086	0.2805627808398315	0.6382589123825662	0.7637385023708001	0.28061730810617336	0.5958509898696285	0.7872280922261964	0.3162612065306458	0.5783707820901175	0.8284690434640138	0.13959868057534003	1.1416785197056678	0.7801697637034957	0.0756075169872029	0.8747675362051891	0.9097840753267037	0.17447922519121584	0.7198278256740334	0.7537449940830585	0.24974856187280875	0.677683272497632	0.6978500590312822	0.23576483857043753	0.6405007716021889	0.6840837401685672	0.1816535225978244	0.6061940635329297	0.7445163605424743	
190	3.220338983050848	0.39155819264210406	0.6784684153681677	0.9598444922184168	0.35424396845496936	0.25667885232933907	0.9775969076383271	0.2999813435367005	-0.19481383209201572	1.0027242534759726	0.30102931079286305	-0.2209781583788335	0.850069874245967	0.3686893855644744	-0.21497899561613204	0.8630927697549152	0.27066168053657724	-0.263513945927321	1.0622253155317711	0.1713621853545242	0.695558404645253	0.9561687945742652	0.13828307967402081	0.26994886204681806	0.9858561410281035	0.1062630944449897	-0.18772845236443447	1.025824336330293	0.13685069217411686	-0.19456130010463824	0.8471143954615525	0.07252295841868894	-0.1866642636784338	0.875022902812171	0.1166522193331612	-0.23517380524701967	1.043289074265869	0.3110316116847428	1.1460596216570882	0.7832534840084933	0.33394369569689475	1.4175053715544588	0.5710652417157134	0.31368419188281665	1.2260439672893861	0.5748809071141731	0.4751528691971697	1.1398180823059227	0.7600413384135658	0.5175686294979316	0.8688398212970907	0.8644192433686686	0.4080503155457412	0.6975239902415458	0.7852326073385931	0.27921311068454857	0.6480880410064319	0.7657528939889575	0.27681956378681466	0.5985049012805022	0.7873157598684553	0.3085672351762566	0.583045023422286	0.8258135390091284	0.14129458883664628	1.1499392858739728	0.7839591659468321	0.0759880391400056	0.8794635915902761	0.9087573180404369	0.17714561822093544	0.7213329239201097	0.7610261493213349	0.2558905557506529	0.6796424614883787	0.7113353660728237	0.24285670246688562	0.6373893370456496	0.6972977242337446	0.1823520571351823	0.6053836521482772	0.7529256556829015	
